External Loads File
version=1
nRows=70
nColumns=13
Range=5.000000e-03-10 seconds
endheader
time 	forceRightX 	forceRightY 	forceRightZ 	pointRightX 	pointRightY 	pointRightZ 	forceLeftX 	forceLeftY 	forceLeftZ 	pointLeftX 	pointLeftY 	pointLeftZ 		
5.005000 74.629919 107.191014 -0.000000 0.238792 0.159260 -0.124419 -35.678950 165.753599 -0.000000 0.393871 0.474732 -0.366473
5.010000 69.268742 95.283337 -0.000000 0.230217 0.164526 -0.124341 -34.129470 187.422258 -0.000000 0.400580 0.469449 -0.366790
5.015000 62.931434 82.812467 -0.000000 0.222000 0.170221 -0.124293 -32.745724 210.174177 -0.000000 0.406949 0.463318 -0.367167
5.020000 55.539126 69.832198 -0.000000 0.214318 0.176470 -0.124138 -31.937009 233.222575 -0.000000 0.413201 0.456379 -0.367478
5.025000 46.921249 56.473454 -0.000000 0.207082 0.183208 -0.124089 -32.277982 255.661969 -0.000000 0.419150 0.448817 -0.367967
5.030000 36.949626 42.961534 -0.000000 0.200484 0.190346 -0.123927 -34.336864 276.593568 -0.000000 0.424648 0.440621 -0.368466
5.035000 25.718252 29.583157 -0.000000 0.194406 0.197856 -0.123768 -38.021641 295.315539 -0.000000 0.430242 0.431995 -0.368872
5.040000 13.395987 16.827475 -0.000000 0.188874 0.205700 -0.123688 -43.868058 311.295729 -0.000000 0.435402 0.423063 -0.369240
5.045000 0.406049 5.152442 -0.000000 0.183860 0.213846 -0.123427 -51.900695 324.428874 -0.000000 0.440334 0.413951 -0.369349
5.050000 -12.709904 -5.006732 -0.000000 0.179548 0.222401 -0.123400 -61.795824 335.056033 -0.000000 0.445035 0.404299 -0.369370
5.055000 -25.346605 -13.313384 -0.000000 0.175680 0.231311 -0.123455 -73.499217 343.743972 -0.000000 0.449395 0.394512 -0.369233
5.060000 -36.894822 -19.552883 -0.000000 0.172302 0.240524 -0.123418 -86.261544 351.287435 -0.000000 0.453264 0.384282 -0.369198
5.065000 -46.787951 -23.694610 -0.000000 0.169485 0.249992 -0.123304 -99.701297 358.428872 -0.000000 0.456659 0.373939 -0.369196
5.070000 -54.589938 -25.828758 -0.000000 0.167300 0.259682 -0.123240 -113.199919 365.983808 -0.000000 0.459451 0.363448 -0.369135
5.075000 -60.062551 -26.089418 -0.000000 0.165560 0.269635 -0.123231 -125.783842 374.888093 -0.000000 0.461868 0.352669 -0.369134
5.080000 -63.117582 -24.799677 -0.000000 0.164465 0.279923 -0.123167 -137.099226 385.814989 -0.000000 0.463620 0.341673 -0.369004
5.085000 -63.855516 -22.392480 -0.000000 0.163923 0.290504 -0.123153 -146.899237 399.229224 -0.000000 0.464509 0.330601 -0.369550
5.090000 -62.547664 -19.332896 -0.000000 0.163945 0.301058 -0.123117 -155.030749 415.378795 -0.000000 0.465097 0.319383 -0.369844
5.095000 -59.616890 -15.960608 -0.000000 0.164684 0.311975 -0.123200 -160.969660 434.469028 -0.000000 0.465074 0.308222 -0.369529
5.100000 -55.539224 -12.558989 -0.000000 0.165986 0.323015 -0.123278 -164.613721 456.332500 -0.000000 0.464404 0.297108 -0.369394
5.105000 -50.802607 -9.260730 -0.000000 0.167824 0.333834 -0.123353 -165.877287 480.589794 -0.000000 0.463063 0.285891 -0.369372
5.110000 -45.858472 -6.042602 -0.000000 0.170449 0.344863 -0.123579 -164.520989 506.781059 -0.000000 0.461189 0.275074 -0.369201
5.115000 -41.091663 -2.796880 -0.000000 0.173648 0.355755 -0.123916 -160.391007 534.314479 -0.000000 0.458751 0.264352 -0.369074
5.120000 -36.812963 0.636455 -0.000000 0.177139 0.366453 -0.123748 -153.742455 562.367740 -0.000000 0.455706 0.253862 -0.368944
5.125000 -33.246856 4.563240 -0.000000 0.181434 0.376976 -0.124437 -144.087786 590.227279 -0.000000 0.452116 0.243641 -0.368749
5.130000 -30.511220 9.286664 -0.000000 0.186351 0.387120 -0.124686 -131.873008 616.858083 -0.000000 0.447928 0.233850 -0.368500
5.135000 -28.602522 15.161150 -0.000000 0.191834 0.396957 -0.124781 -116.572875 641.443397 -0.000000 0.443184 0.224304 -0.368429
5.140000 -27.431267 22.439755 -0.000000 0.197811 0.406487 -0.125065 -98.588566 662.995346 -0.000000 0.437861 0.215216 -0.368025
5.145000 -26.838465 31.282245 -0.000000 0.204449 0.415585 -0.125294 -78.059473 680.673296 -0.000000 0.432070 0.206525 -0.367879
5.150000 -26.654017 41.680060 -0.000000 0.211553 0.424204 -0.125500 -55.682279 693.707409 -0.000000 0.425811 0.198278 -0.367728
5.155000 -26.716401 53.496535 -0.000000 0.218985 0.432370 -0.125639 -32.187687 701.569568 -0.000000 0.419073 0.190532 -0.367671
5.160000 -26.880566 66.504066 -0.000000 0.226821 0.440153 -0.125749 -8.101116 704.029517 -0.000000 0.411865 0.183377 -0.367581
5.165000 -27.072559 80.365836 -0.000000 0.235139 0.447315 -0.125725 15.743197 701.155299 -0.000000 0.404244 0.176749 -0.367078
5.170000 -27.074858 94.707163 -0.000000 0.244444 0.454000 -0.124864 39.917052 693.265294 -0.000000 0.396251 0.170553 -0.366731
5.175000 -27.329495 108.905958 -0.000000 0.252990 0.460054 -0.125655 60.300473 681.194928 -0.000000 0.387904 0.164882 -0.366346
5.180000 -27.289763 122.612013 -0.000000 0.262240 0.465676 -0.125684 80.147981 665.495303 -0.000000 0.378906 0.159717 -0.365669
5.185000 -27.252820 135.308837 -0.000000 0.271737 0.470678 -0.125715 97.231952 647.107639 -0.000000 0.369845 0.155047 -0.365198
5.190000 -27.157207 146.716194 -0.000000 0.281445 0.475366 -0.125874 111.985927 626.644353 -0.000000 0.360545 0.151175 -0.365004
5.195000 -26.650659 156.791503 -0.000000 0.291293 0.479128 -0.125840 125.940122 604.250524 -0.000000 0.350203 0.147696 -0.364595
5.200000 -26.746926 165.452919 -0.000000 0.301798 0.482455 -0.126340 135.242986 580.974518 -0.000000 0.341756 0.145027 -0.366021
5.205000 -26.508260 173.112332 -0.000000 0.311358 0.485030 -0.126365 143.485098 556.240372 -0.000000 0.331792 0.143157 -0.365948
5.210000 -25.784466 180.145968 -0.000000 0.321175 0.487168 -0.126482 150.805147 530.113710 -0.000000 0.321619 0.141631 -0.366064
5.215000 -24.598889 186.975415 -0.000000 0.331041 0.488579 -0.126536 156.863472 502.871308 -0.000000 0.311333 0.141079 -0.366247
5.220000 -23.016484 194.051454 -0.000000 0.340673 0.489457 -0.126632 161.331173 474.890519 -0.000000 0.301034 0.141202 -0.366373
5.225000 -20.777284 201.854856 -0.000000 0.350265 0.489501 -0.126500 164.748128 446.302697 -0.000000 0.290714 0.142159 -0.366495
5.230000 -18.244964 210.757180 -0.000000 0.359189 0.488930 -0.126369 166.295362 417.687086 -0.000000 0.280494 0.143746 -0.366617
5.235000 -15.106248 221.120098 -0.000000 0.367861 0.487734 -0.126352 166.752248 388.926404 -0.000000 0.270360 0.146184 -0.366623
5.240000 -11.475747 233.140232 -0.000000 0.376259 0.485908 -0.126504 165.972246 360.098411 -0.000000 0.260463 0.149249 -0.366590
5.245000 -7.425270 246.894702 -0.000000 0.384157 0.483272 -0.126396 163.914281 331.128002 -0.000000 0.250792 0.153045 -0.366593
5.250000 -2.792044 262.342151 -0.000000 0.391764 0.479800 -0.126489 160.758051 301.725818 -0.000000 0.241349 0.157567 -0.366611
5.255000 2.023732 279.300722 -0.000000 0.398945 0.475822 -0.126463 155.932176 271.957741 -0.000000 0.232371 0.162697 -0.366495
5.260000 6.813928 297.476774 -0.000000 0.405588 0.471030 -0.126422 149.307351 241.839094 -0.000000 0.224049 0.168447 -0.366019
5.265000 11.924640 316.434215 -0.000000 0.412208 0.465370 -0.125911 141.333298 211.337689 -0.000000 0.216233 0.174766 -0.365799
5.270000 16.936806 335.634174 -0.000000 0.418315 0.459137 -0.125563 131.933641 181.035735 -0.000000 0.208612 0.181712 -0.366299
5.275000 21.849659 354.446103 -0.000000 0.424166 0.452133 -0.125088 121.433625 151.448377 -0.000000 0.201064 0.188993 -0.364416
5.280000 25.437228 372.301329 -0.000000 0.429674 0.444552 -0.124841 109.727782 123.547611 -0.000000 0.194632 0.196666 -0.364563
5.285000 27.632540 388.635553 -0.000000 0.434762 0.436720 -0.124888 97.391306 97.817646 -0.000000 0.188815 0.204833 -0.364448
5.290000 29.001832 402.975068 -0.000000 0.439457 0.427741 -0.125059 85.038072 74.576015 -0.000000 0.183564 0.213304 -0.364270
5.295000 28.606014 415.170255 -0.000000 0.443828 0.418654 -0.125682 72.893909 54.397664 -0.000000 0.178962 0.222061 -0.364155
5.300000 26.499111 425.276834 -0.000000 0.447556 0.409174 -0.125894 61.438803 37.425220 -0.000000 0.174974 0.231111 -0.364135
5.305000 23.344002 433.593651 -0.000000 0.451106 0.399098 -0.126059 51.108078 23.556320 -0.000000 0.171512 0.240386 -0.364075
5.310000 19.042933 440.660385 -0.000000 0.454156 0.388528 -0.125813 42.134357 12.661142 -0.000000 0.168613 0.249924 -0.364050
5.315000 13.945936 447.067366 -0.000000 0.456806 0.377584 -0.125691 34.665084 4.434000 -0.000000 0.166269 0.259809 -0.364015
5.320000 7.198112 453.448608 -0.000000 0.457964 0.366652 -0.125059 28.753762 -1.402263 -0.000000 0.164631 0.269940 -0.364034
5.325000 0.412076 460.350586 -0.000000 0.459687 0.355504 -0.124690 24.417096 -5.294338 -0.000000 0.163541 0.280183 -0.363791
5.330000 -6.617267 468.310309 -0.000000 0.460990 0.344410 -0.124577 21.642487 -7.526689 -0.000000 0.162924 0.290739 -0.363683
5.335000 -13.995891 477.745349 -0.000000 0.461640 0.333204 -0.124451 20.417239 -8.411294 -0.000000 0.162928 0.301186 -0.363538
5.340000 -21.155058 488.976455 -0.000000 0.461954 0.322020 -0.124180 20.667532 -8.312934 -0.000000 0.163494 0.311735 -0.363513
5.345000 -27.560205 502.207819 -0.000000 0.461223 0.310714 -0.124133 22.234657 -7.634377 -0.000000 0.164678 0.322369 -0.363454
5.350000 -33.318950 517.454967 -0.000000 0.460321 0.299402 -0.123370 24.862059 -6.784571 -0.000000 0.166450 0.332926 -0.363365
